<!-- Generated by IcoMoon.io -->
<svg version="1.1" xmlns="http://www.w3.org/2000/svg" width="32" height="32" viewBox="0 0 32 32">
<title>calendar</title>
<path fill="#b370f5" d="M17.437 22.75c0 1.378 1.122 2.5 2.5 2.5h2.938c1.378 0 2.5-1.122 2.5-2.5v-2.937c0-1.379-1.122-2.5-2.5-2.5h-2.938c-1.378 0-2.5 1.121-2.5 2.5v2.937zM19.937 19.813h2.938l0.002 2.937c0 0-0 0-0.002 0h-2.938v-2.937z"></path>
<path fill="#b370f5" d="M24.125 14.375c0.69 0 1.25-0.56 1.25-1.25s-0.56-1.25-1.25-1.25c-0.69 0-1.25 0.56-1.25 1.25s0.56 1.25 1.25 1.25z"></path>
<path fill="#b370f5" d="M18.687 14.375c0.69 0 1.25-0.56 1.25-1.25s-0.56-1.25-1.25-1.25c-0.69 0-1.25 0.56-1.25 1.25s0.56 1.25 1.25 1.25z"></path>
<path fill="#b370f5" d="M30.75 22c0.69 0 1.25-0.56 1.25-1.25v-13.25c0-2.757-2.243-5-5-5h-1.625v-1.25c0-0.69-0.56-1.25-1.25-1.25s-1.25 0.56-1.25 1.25v1.25h-5.688v-1.25c0-0.69-0.56-1.25-1.25-1.25s-1.25 0.56-1.25 1.25v1.25h-5.625v-1.25c0-0.69-0.56-1.25-1.25-1.25s-1.25 0.56-1.25 1.25v1.25h-1.563c-2.757 0-5 2.243-5 5v19.5c0 2.757 2.243 5 5 5h22c2.757 0 5-2.243 5-5 0-0.69-0.56-1.25-1.25-1.25s-1.25 0.56-1.25 1.25c0 1.378-1.122 2.5-2.5 2.5h-22c-1.378 0-2.5-1.122-2.5-2.5v-19.5c0-1.378 1.122-2.5 2.5-2.5h1.563v1.25c0 0.69 0.56 1.25 1.25 1.25s1.25-0.56 1.25-1.25v-1.25h5.625v1.25c0 0.69 0.56 1.25 1.25 1.25s1.25-0.56 1.25-1.25v-1.25h5.688v1.25c0 0.69 0.56 1.25 1.25 1.25s1.25-0.56 1.25-1.25v-1.25h1.625c1.378 0 2.5 1.122 2.5 2.5v13.25c0 0.69 0.56 1.25 1.25 1.25z"></path>
<path fill="#b370f5" d="M7.813 25.25c0.69 0 1.25-0.56 1.25-1.25s-0.56-1.25-1.25-1.25c-0.69 0-1.25 0.56-1.25 1.25s0.56 1.25 1.25 1.25z"></path>
<path fill="#b370f5" d="M7.813 14.375c0.69 0 1.25-0.56 1.25-1.25s-0.56-1.25-1.25-1.25c-0.69 0-1.25 0.56-1.25 1.25s0.56 1.25 1.25 1.25z"></path>
<path fill="#b370f5" d="M7.813 19.813c0.69 0 1.25-0.56 1.25-1.25s-0.56-1.25-1.25-1.25c-0.69 0-1.25 0.56-1.25 1.25s0.56 1.25 1.25 1.25z"></path>
<path fill="#b370f5" d="M13.25 19.813c0.69 0 1.25-0.56 1.25-1.25s-0.56-1.25-1.25-1.25-1.25 0.56-1.25 1.25c0 0.69 0.56 1.25 1.25 1.25z"></path>
<path fill="#b370f5" d="M13.25 14.375c0.69 0 1.25-0.56 1.25-1.25s-0.56-1.25-1.25-1.25c-0.69 0-1.25 0.56-1.25 1.25s0.56 1.25 1.25 1.25z"></path>
<path fill="#b370f5" d="M13.25 25.25c0.69 0 1.25-0.56 1.25-1.25s-0.56-1.25-1.25-1.25c-0.69 0-1.25 0.56-1.25 1.25s0.56 1.25 1.25 1.25z"></path>
</svg>
