<!-- Generated by IcoMoon.io -->
<svg version="1.1" xmlns="http://www.w3.org/2000/svg" width="32" height="32" viewBox="0 0 32 32">
<title>crown</title>
<path fill="#7a00f4" d="M24.33 24.451h-17.674v2.436h18.592v-2.436h-0.919z"></path>
<path fill="#7a00f4" d="M8.823 9.326l-1.278 3.117 2.66 1.309 1.807-2.581-3.189-1.845z"></path>
<path fill="#7a00f4" d="M23.177 9.326l-3.249 1.88 0.529 0.755 1.253 1.791 2.731-1.344-1.264-3.082z"></path>
<path fill="#a078fa" d="M29.089 9.108c-1.325 0-2.42 0.998-2.573 2.283-0.012 0.101-0.018 0.204-0.018 0.308 0 0.234 0.031 0.461 0.090 0.677 0.081 0.302 0.217 0.583 0.394 0.83l-5.875 2.892-4.555-6.507c0.311-0.072 0.601-0.201 0.859-0.375 0.259-0.174 0.485-0.395 0.666-0.65 0.301-0.423 0.479-0.941 0.479-1.499 0-1.429-1.162-2.591-2.591-2.591s-2.591 1.162-2.591 2.591c0 0.553 0.174 1.065 0.47 1.486 0.18 0.256 0.405 0.478 0.663 0.654 0.256 0.175 0.545 0.306 0.856 0.38l-4.557 6.51-5.967-2.937c0.205-0.229 0.371-0.495 0.484-0.786s0.176-0.607 0.177-0.937v-0.005c0-1.429-1.162-2.591-2.591-2.591s-2.591 1.162-2.591 2.591c0 1.31 0.978 2.397 2.243 2.568 0.114 0.015 0.23 0.023 0.348 0.023 0.209 0 0.413-0.025 0.608-0.072 0.306-0.073 0.59-0.202 0.843-0.373l3.213 9.036h16.765l0.326-0.919 2.829-7.955c0.243 0.191 0.521 0.338 0.822 0.432 0.244 0.077 0.503 0.118 0.772 0.118 0.055 0 0.11-0.002 0.164-0.005 1.352-0.084 2.427-1.212 2.427-2.585 0-1.429-1.163-2.591-2.591-2.591z"></path>
</svg>
