<!-- Generated by IcoMoon.io -->
<svg version="1.1" xmlns="http://www.w3.org/2000/svg" width="32" height="32" viewBox="0 0 32 32">
<title>globe-white</title>
<path fill="#fff" d="M31.153 19.016c0.092-0.671 0.14-1.356 0.14-2.052 0-4.187-1.721-8.016-4.523-10.763-0.018-0.019-0.036-0.037-0.056-0.054-2.132-2.069-4.881-3.513-7.969-4.020-0.249-1.118-1.246-1.956-2.434-1.956-1.189 0-2.186 0.838-2.436 1.956-1.646 0.269-3.225 0.81-4.7 1.613-0.361 0.197-0.495 0.65-0.299 1.012 0.135 0.249 0.391 0.39 0.655 0.39 0.12 0 0.242-0.029 0.355-0.091 1.293-0.704 2.673-1.185 4.113-1.433 0.373 0.914 1.268 1.559 2.311 1.559 1.042 0 1.936-0.645 2.309-1.559 2.059 0.356 3.947 1.176 5.563 2.344h-2.844c-1.532 0-2.779 1.251-2.779 2.788 0 1.536 1.247 2.786 2.779 2.786 0.711 0 1.288 0.581 1.288 1.296s-0.578 1.296-1.288 1.296h-0.431c-1.531 0-2.777 1.25-2.777 2.787s1.246 2.788 2.777 2.788h8.618c-1.265 6.159-6.71 10.804-13.215 10.804-2.963 0-5.707-0.964-7.935-2.596h2.852c1.533 0 2.779-1.251 2.779-2.788 0-1.536-1.247-2.786-2.779-2.786-0.711 0-1.288-0.581-1.288-1.296 0-0.713 0.578-1.294 1.288-1.294h0.429c1.533 0 2.779-1.251 2.779-2.788s-1.247-2.789-2.779-2.789h-8.556c0.417-2.012 1.289-3.896 2.58-5.552 0.253-0.325 0.196-0.794-0.128-1.048s-0.792-0.196-1.045 0.128c-2.081 2.668-3.181 5.871-3.181 9.263 0 4.16 1.692 7.931 4.422 10.656 0.043 0.056 0.094 0.106 0.151 0.148 2.698 2.619 6.37 4.233 10.411 4.233 7.534 0 13.786-5.611 14.828-12.888 0.007-0.032 0.011-0.064 0.014-0.097v0zM2.877 15.664h8.78c0.711 0 1.29 0.581 1.29 1.296s-0.579 1.296-1.29 1.296h-0.429c-1.531 0-2.777 1.25-2.777 2.786s1.246 2.788 2.777 2.788c0.711 0 1.29 0.58 1.29 1.294s-0.579 1.296-1.29 1.296h-4.569c-2.376-2.443-3.843-5.78-3.843-9.456 0-0.437 0.021-0.871 0.061-1.3v0zM16.312 3.685c-0.556 0-1.008-0.454-1.008-1.012s0.452-1.010 1.008-1.010c0.554 0 1.005 0.453 1.005 1.010s-0.451 1.012-1.005 1.012zM20.909 18.21c-0.71 0-1.288-0.581-1.288-1.296 0-0.713 0.578-1.294 1.288-1.294h0.431c1.531 0 2.777-1.251 2.777-2.788s-1.246-2.788-2.777-2.788c-0.711 0-1.29-0.58-1.29-1.294 0-0.715 0.579-1.296 1.29-1.296h4.578c2.413 2.459 3.887 5.831 3.887 9.509 0 0.42-0.020 0.836-0.058 1.247h-8.838z"></path>
</svg>
