<!-- Generated by IcoMoon.io -->
<svg version="1.1" xmlns="http://www.w3.org/2000/svg" width="32" height="32" viewBox="0 0 32 32">
<title>image-black</title>
<path fill="#03053d" d="M28.8 4.8h-25.6v22.4l14.867-14.87c0.3-0.3 0.707-0.468 1.131-0.468s0.831 0.168 1.131 0.468l8.47 8.486v-16.016zM0 3.189c0.003-0.42 0.171-0.822 0.468-1.12s0.699-0.466 1.119-0.469h28.826c0.877 0 1.587 0.712 1.587 1.589v25.622c-0.003 0.42-0.171 0.822-0.468 1.12s-0.699 0.466-1.119 0.469h-28.826c-0.421-0-0.825-0.168-1.122-0.466s-0.465-0.702-0.465-1.123v-25.622zM9.6 14.4c-0.849 0-1.663-0.337-2.263-0.937s-0.937-1.414-0.937-2.263c0-0.849 0.337-1.663 0.937-2.263s1.414-0.937 2.263-0.937c0.849 0 1.663 0.337 2.263 0.937s0.937 1.414 0.937 2.263c0 0.849-0.337 1.663-0.937 2.263s-1.414 0.937-2.263 0.937z"></path>
</svg>
