<!-- Generated by IcoMoon.io -->
<svg version="1.1" xmlns="http://www.w3.org/2000/svg" width="32" height="32" viewBox="0 0 32 32">
<title>image-white</title>
<path fill="#fff" d="M30.107 19.114c-1.038-0.977-2.351-1.618-3.786-1.802v-11.176c0-1.191-0.488-2.26-1.252-3.053-0.794-0.794-1.863-1.252-3.053-1.252h-17.71c-1.191 0-2.26 0.489-3.053 1.252-0.794 0.794-1.252 1.863-1.252 3.053v18.229c0 1.191 0.489 2.259 1.252 3.053 0.794 0.794 1.863 1.252 3.053 1.252h17.13c1.13 0.916 2.534 1.496 4.092 1.496 1.802 0 3.42-0.733 4.58-1.893s1.893-2.779 1.893-4.58-0.733-3.42-1.893-4.58zM1.618 6.137c0-0.733 0.305-1.405 0.794-1.863 0.489-0.489 1.16-0.794 1.893-0.794h17.71c0.733 0 1.405 0.305 1.893 0.794s0.794 1.16 0.794 1.893v9.527l-4.519-4.519c-0.305-0.305-0.824-0.336-1.16 0l-6.809 6.84-4.611-4.641c-0.305-0.305-0.824-0.336-1.16 0l-4.824 4.885v-12.122zM4.275 27.114v-0.061c-0.733 0-1.405-0.305-1.893-0.794-0.458-0.488-0.763-1.16-0.763-1.893v-3.786l5.405-5.435 4.611 4.611c0.305 0.305 0.824 0.305 1.16 0l6.809-6.84 4.458 4.489c-0.092 0.030-0.183 0.061-0.275 0.092-0.122 0.031-0.244 0.061-0.397 0.122-0.122 0.030-0.244 0.092-0.366 0.122-0.092 0.031-0.153 0.061-0.244 0.122-0.122 0.061-0.214 0.092-0.305 0.153-0.153 0.092-0.305 0.183-0.458 0.275-0.092 0.061-0.153 0.092-0.244 0.153-0.061 0.031-0.092 0.061-0.153 0.092-0.275 0.183-0.519 0.397-0.733 0.641-1.16 1.16-1.893 2.779-1.893 4.58 0 0.458 0.061 0.885 0.153 1.343 0.031 0.122 0.061 0.214 0.092 0.336 0.092 0.305 0.183 0.611 0.305 0.916v0.031c0.122 0.244 0.244 0.519 0.397 0.733h-15.664zM28.916 27.114c-0.885 0.886-2.076 1.405-3.42 1.405-1.282 0-2.473-0.519-3.328-1.343-0.122-0.122-0.244-0.275-0.366-0.397-0.092-0.092-0.183-0.214-0.275-0.305-0.122-0.153-0.214-0.336-0.305-0.519-0.061-0.122-0.122-0.214-0.183-0.336-0.061-0.153-0.122-0.336-0.153-0.519-0.031-0.122-0.092-0.275-0.122-0.397-0.061-0.305-0.092-0.641-0.092-0.977 0-1.343 0.55-2.534 1.405-3.42s2.076-1.405 3.42-1.405c1.343 0 2.534 0.55 3.42 1.405 0.886 0.886 1.405 2.076 1.405 3.42 0 1.313-0.55 2.504-1.405 3.389z"></path>
</svg>
