<!-- Generated by IcoMoon.io -->
<svg version="1.1" xmlns="http://www.w3.org/2000/svg" width="32" height="32" viewBox="0 0 32 32">
<title>lock-white</title>
<path fill="#fff" d="M24.234 4.54c0.345 0 0.625-0.28 0.625-0.625s-0.28-0.625-0.625-0.625h-0.004c-0.345 0-0.623 0.28-0.623 0.625s0.282 0.625 0.627 0.625z"></path>
<path fill="#fff" d="M27.607 4.54c0.345 0 0.625-0.28 0.625-0.625s-0.28-0.625-0.625-0.625h-0.004c-0.345 0-0.623 0.28-0.623 0.625s0.282 0.625 0.627 0.625z"></path>
<path fill="#fff" d="M20.86 4.54c0.345 0 0.625-0.28 0.625-0.625s-0.28-0.625-0.625-0.625h-0.003c-0.345 0-0.623 0.28-0.623 0.625s0.282 0.625 0.627 0.625z"></path>
<path fill="#fff" d="M4.391 4.54h9.391c0.345 0 0.625-0.28 0.625-0.625s-0.28-0.625-0.625-0.625h-9.391c-0.345 0-0.625 0.28-0.625 0.625s0.28 0.625 0.625 0.625z"></path>
<path fill="#fff" d="M29.995 0.001h-27.99c-1.106 0-2.005 0.899-2.005 2.005v23.143c0 1.106 0.899 2.005 2.005 2.005h5.002c0.399 0.604 0.862 1.171 1.385 1.695 2.032 2.032 4.734 3.151 7.607 3.151s5.575-1.119 7.607-3.151c0.527-0.527 0.988-1.095 1.382-1.695h5.006c1.106 0 2.005-0.899 2.005-2.005v-23.143c0-1.106-0.899-2.005-2.005-2.005v0zM2.005 1.251h27.99c0.416 0 0.755 0.339 0.755 0.755v4.577h-29.5v-4.577c0-0.416 0.339-0.755 0.755-0.755v0zM29.995 25.904h-4.3c1.92-4.002 1.224-8.955-2.088-12.268-1.684-1.684-3.819-2.741-6.174-3.056-2.279-0.305-4.637 0.137-6.639 1.245-0.302 0.167-0.412 0.547-0.245 0.849s0.547 0.411 0.849 0.244c3.686-2.039 8.342-1.38 11.324 1.601 3.707 3.707 3.707 9.738 0 13.445-1.796 1.796-4.184 2.785-6.723 2.785s-4.927-0.989-6.723-2.785c-2.981-2.981-3.639-7.637-1.601-11.322 0.167-0.302 0.058-0.682-0.244-0.849s-0.682-0.058-0.849 0.244c-1.107 2.002-1.549 4.359-1.244 6.638 0.152 1.136 0.477 2.221 0.961 3.228h-4.293c-0.416 0-0.755-0.339-0.755-0.755v-17.316h29.5v17.316c0 0.416-0.339 0.755-0.755 0.755z"></path>
<path fill="#fff" d="M15.999 24.843c0.345 0 0.625-0.28 0.625-0.625v-1.492c0-0.345-0.28-0.625-0.625-0.625s-0.625 0.28-0.625 0.625v1.492c0 0.345 0.28 0.625 0.625 0.625z"></path>
<path fill="#fff" d="M15.999 28.406c2.953 0 5.355-2.402 5.355-5.355v-2.39c0-0.809-0.581-1.484-1.348-1.63v-1.639c0-1.845-1.501-3.346-3.346-3.346h-1.322c-1.845 0-3.346 1.501-3.346 3.346v1.639c-0.767 0.147-1.348 0.822-1.348 1.63v2.39c-0 2.953 2.402 5.355 5.355 5.355v0zM13.242 17.392c0-1.156 0.94-2.096 2.096-2.096h1.322c1.156 0 2.096 0.94 2.096 2.096v1.609h-5.514v-1.609zM11.894 20.661c0-0.222 0.188-0.41 0.411-0.41h7.389c0.222 0 0.41 0.188 0.41 0.41v2.39c0 2.264-1.842 4.105-4.105 4.105s-4.105-1.842-4.105-4.105v-2.39z"></path>
<path fill="#fff" d="M8.393 13.635c-0.244 0.244-0.244 0.64 0 0.884 0.122 0.122 0.282 0.183 0.442 0.183s0.32-0.061 0.442-0.183l0.002-0.002c0.244-0.244 0.243-0.639-0.001-0.883s-0.641-0.243-0.885 0.001v0z"></path>
</svg>
