<svg width="390" height="987" fill="none" xmlns="http://www.w3.org/2000/svg"><path d="M277.5 356.5C152 14-495.5 237-547.5-70H1420v891.5c-78-69.5-241.45-143.917-571-19-314 119.024-482.887-204.169-571.5-446z" fill="url(#paint0_linear_225_170)"/><path d="M174 321C39.5 73-156 117-225-68h1645v693.5c-191.5 0-199.5 126.5-568.5 110C589.467 723.783 328.789 606.411 174 321z" fill="url(#paint1_linear_225_170)" fill-opacity=".59"/><path d="M440.5 278C239 250.5 67 118 67-70h1353v486c-191.5 0-323.5 378.5-533 257.5C714 573.581 743.405 319.339 440.5 278z" fill="url(#paint2_linear_225_170)"/><defs><linearGradient id="paint0_linear_225_170" x1="476.937" y1="-70" x2="476.937" y2="827.985" gradientUnits="userSpaceOnUse"><stop stop-color="#9039FF"/><stop offset="1" stop-color="#39B8FF"/></linearGradient><linearGradient id="paint1_linear_225_170" x1="478" y1="-289.5" x2="918.5" y2="584.5" gradientUnits="userSpaceOnUse"><stop offset=".354" stop-color="#8DFFFF"/><stop offset="1" stop-color="#304CE1"/></linearGradient><linearGradient id="paint2_linear_225_170" x1="701" y1="-106" x2="1057" y2="538.5" gradientUnits="userSpaceOnUse"><stop stop-color="#9584FF"/><stop offset="1" stop-color="#B556FF"/></linearGradient></defs></svg>