<!-- Generated by IcoMoon.io -->
<svg version="1.1" xmlns="http://www.w3.org/2000/svg" width="32" height="32" viewBox="0 0 32 32">
<title>speedometer-white</title>
<path fill="#fff" d="M15.062 3.75c-3.61 0.207-6.994 1.609-9.694 4.015l4.003 4.003c0.881-0.313 1.829-0.484 2.815-0.484 1.009 0 1.977 0.178 2.875 0.505v-8.039z"></path>
<path fill="#fff" d="M18.702 14.366l7.573-6.909c-2.638-2.218-5.884-3.508-9.337-3.707v9.002c0.662 0.452 1.256 0.996 1.764 1.613v0z"></path>
<path fill="#fff" d="M0 19.722v0.937h3.75v-0.937c0-2.961 1.533-5.571 3.848-7.077l-3.554-3.554c-2.614 2.932-4.043 6.671-4.043 10.631z"></path>
<path fill="#fff" d="M27.028 20.66h4.972v-0.938c0-1.363-0.17-2.7-0.499-3.987l-4.473 4.925z"></path>
<path fill="#fff" d="M16 20.691c-1.002 0-1.944 0.39-2.652 1.098-1.462 1.462-1.462 3.841 0 5.303 0.708 0.708 1.65 1.098 2.652 1.098s1.943-0.39 2.652-1.098c1.462-1.462 1.462-3.841 0-5.303-0.708-0.708-1.65-1.098-2.652-1.098z"></path>
<path fill="#fff" d="M28.012 8.41l-11.438 10.436c1.285 0.129 2.478 0.693 3.403 1.618 0.948 0.948 1.486 2.154 1.614 3.394l10.409-11.461v-3.987h-3.988z"></path>
</svg>
