<svg aria-hidden="true" style="position: absolute; width: 0; height: 0; overflow: hidden;" version="1.1" xmlns="http://www.w3.org/2000/svg" xmlns:xlink="http://www.w3.org/1999/xlink">
<defs>
<symbol id="close" viewBox="0 0 32 32">
<path fill="none" stroke="#787878" style="stroke: var(--color1, #787878)" stroke-linejoin="miter" stroke-linecap="round" stroke-miterlimit="4" stroke-width="2.7429" d="M2.201 16.457h27.863"></path>
<path fill="none" stroke="#787878" style="stroke: var(--color1, #787878)" stroke-linejoin="miter" stroke-linecap="round" stroke-miterlimit="4" stroke-width="2.7429" d="M16.132 1.829v28.343"></path>
</symbol>
<symbol id="calendar" viewBox="0 0 32 32">
<path fill="#b370f5" style="fill: var(--color2, #b370f5)" d="M17.437 22.75c0 1.378 1.122 2.5 2.5 2.5h2.938c1.378 0 2.5-1.122 2.5-2.5v-2.937c0-1.379-1.122-2.5-2.5-2.5h-2.938c-1.378 0-2.5 1.121-2.5 2.5v2.937zM19.937 19.813h2.938l0.002 2.937c0 0-0 0-0.002 0h-2.938v-2.937z"></path>
<path fill="#b370f5" style="fill: var(--color2, #b370f5)" d="M24.125 14.375c0.69 0 1.25-0.56 1.25-1.25s-0.56-1.25-1.25-1.25c-0.69 0-1.25 0.56-1.25 1.25s0.56 1.25 1.25 1.25z"></path>
<path fill="#b370f5" style="fill: var(--color2, #b370f5)" d="M18.687 14.375c0.69 0 1.25-0.56 1.25-1.25s-0.56-1.25-1.25-1.25c-0.69 0-1.25 0.56-1.25 1.25s0.56 1.25 1.25 1.25z"></path>
<path fill="#b370f5" style="fill: var(--color2, #b370f5)" d="M30.75 22c0.69 0 1.25-0.56 1.25-1.25v-13.25c0-2.757-2.243-5-5-5h-1.625v-1.25c0-0.69-0.56-1.25-1.25-1.25s-1.25 0.56-1.25 1.25v1.25h-5.688v-1.25c0-0.69-0.56-1.25-1.25-1.25s-1.25 0.56-1.25 1.25v1.25h-5.625v-1.25c0-0.69-0.56-1.25-1.25-1.25s-1.25 0.56-1.25 1.25v1.25h-1.563c-2.757 0-5 2.243-5 5v19.5c0 2.757 2.243 5 5 5h22c2.757 0 5-2.243 5-5 0-0.69-0.56-1.25-1.25-1.25s-1.25 0.56-1.25 1.25c0 1.378-1.122 2.5-2.5 2.5h-22c-1.378 0-2.5-1.122-2.5-2.5v-19.5c0-1.378 1.122-2.5 2.5-2.5h1.563v1.25c0 0.69 0.56 1.25 1.25 1.25s1.25-0.56 1.25-1.25v-1.25h5.625v1.25c0 0.69 0.56 1.25 1.25 1.25s1.25-0.56 1.25-1.25v-1.25h5.688v1.25c0 0.69 0.56 1.25 1.25 1.25s1.25-0.56 1.25-1.25v-1.25h1.625c1.378 0 2.5 1.122 2.5 2.5v13.25c0 0.69 0.56 1.25 1.25 1.25z"></path>
<path fill="#b370f5" style="fill: var(--color2, #b370f5)" d="M7.813 25.25c0.69 0 1.25-0.56 1.25-1.25s-0.56-1.25-1.25-1.25c-0.69 0-1.25 0.56-1.25 1.25s0.56 1.25 1.25 1.25z"></path>
<path fill="#b370f5" style="fill: var(--color2, #b370f5)" d="M7.813 14.375c0.69 0 1.25-0.56 1.25-1.25s-0.56-1.25-1.25-1.25c-0.69 0-1.25 0.56-1.25 1.25s0.56 1.25 1.25 1.25z"></path>
<path fill="#b370f5" style="fill: var(--color2, #b370f5)" d="M7.813 19.813c0.69 0 1.25-0.56 1.25-1.25s-0.56-1.25-1.25-1.25c-0.69 0-1.25 0.56-1.25 1.25s0.56 1.25 1.25 1.25z"></path>
<path fill="#b370f5" style="fill: var(--color2, #b370f5)" d="M13.25 19.813c0.69 0 1.25-0.56 1.25-1.25s-0.56-1.25-1.25-1.25-1.25 0.56-1.25 1.25c0 0.69 0.56 1.25 1.25 1.25z"></path>
<path fill="#b370f5" style="fill: var(--color2, #b370f5)" d="M13.25 14.375c0.69 0 1.25-0.56 1.25-1.25s-0.56-1.25-1.25-1.25c-0.69 0-1.25 0.56-1.25 1.25s0.56 1.25 1.25 1.25z"></path>
<path fill="#b370f5" style="fill: var(--color2, #b370f5)" d="M13.25 25.25c0.69 0 1.25-0.56 1.25-1.25s-0.56-1.25-1.25-1.25c-0.69 0-1.25 0.56-1.25 1.25s0.56 1.25 1.25 1.25z"></path>
</symbol>
<symbol id="check" viewBox="0 0 32 32">
<path fill="none" stroke="#32c52f" style="stroke: var(--color3, #32c52f)" stroke-linejoin="round" stroke-linecap="round" stroke-miterlimit="4" stroke-width="5.12" d="M3.171 16l10.099 10.88 15.501-21.76"></path>
</symbol>
<symbol id="crown" viewBox="0 0 32 32">
<path fill="#7a00f4" style="fill: var(--color4, #7a00f4)" d="M24.33 24.451h-17.674v2.436h18.592v-2.436h-0.919z"></path>
<path fill="#7a00f4" style="fill: var(--color4, #7a00f4)" d="M8.823 9.326l-1.278 3.117 2.66 1.309 1.807-2.581-3.189-1.845z"></path>
<path fill="#7a00f4" style="fill: var(--color4, #7a00f4)" d="M23.177 9.326l-3.249 1.88 0.529 0.755 1.253 1.791 2.731-1.344-1.264-3.082z"></path>
<path fill="#a078fa" style="fill: var(--color5, #a078fa)" d="M29.089 9.108c-1.325 0-2.42 0.998-2.573 2.283-0.012 0.101-0.018 0.204-0.018 0.308 0 0.234 0.031 0.461 0.090 0.677 0.081 0.302 0.217 0.583 0.394 0.83l-5.875 2.892-4.555-6.507c0.311-0.072 0.601-0.201 0.859-0.375 0.259-0.174 0.485-0.395 0.666-0.65 0.301-0.423 0.479-0.941 0.479-1.499 0-1.429-1.162-2.591-2.591-2.591s-2.591 1.162-2.591 2.591c0 0.553 0.174 1.065 0.47 1.486 0.18 0.256 0.405 0.478 0.663 0.654 0.256 0.175 0.545 0.306 0.856 0.38l-4.557 6.51-5.967-2.937c0.205-0.229 0.371-0.495 0.484-0.786s0.176-0.607 0.177-0.937v-0.005c0-1.429-1.162-2.591-2.591-2.591s-2.591 1.162-2.591 2.591c0 1.31 0.978 2.397 2.243 2.568 0.114 0.015 0.23 0.023 0.348 0.023 0.209 0 0.413-0.025 0.608-0.072 0.306-0.073 0.59-0.202 0.843-0.373l3.213 9.036h16.765l0.326-0.919 2.829-7.955c0.243 0.191 0.521 0.338 0.822 0.432 0.244 0.077 0.503 0.118 0.772 0.118 0.055 0 0.11-0.002 0.164-0.005 1.352-0.084 2.427-1.212 2.427-2.585 0-1.429-1.163-2.591-2.591-2.591z"></path>
</symbol>
<symbol id="download" viewBox="0 0 32 32">
<path fill="none" stroke="#82b1fc" style="stroke: var(--color6, #82b1fc)" stroke-linejoin="round" stroke-linecap="round" stroke-miterlimit="4" stroke-width="2.0741" d="M23.884 8.018v0.007M8.060 8.018c-4.37 4.37-4.37 11.454 0 15.824s11.454 4.37 15.824 0c3.414-3.414 4.161-8.486 2.24-12.625"></path>
<path fill="none" stroke="#82b1fc" style="stroke: var(--color6, #82b1fc)" stroke-linejoin="round" stroke-linecap="round" stroke-miterlimit="4" stroke-width="1.7778" d="M15.826 7.116v11.015"></path>
<path fill="none" stroke="#82b1fc" style="stroke: var(--color6, #82b1fc)" stroke-linejoin="round" stroke-linecap="round" stroke-miterlimit="4" stroke-width="1.7778" d="M12.165 15.638l3.709 3.709 3.708-3.709"></path>
</symbol>
<symbol id="globe-white" viewBox="0 0 32 32">
<path fill="#fff" style="fill: var(--color7, #fff)" d="M31.153 19.016c0.092-0.671 0.14-1.356 0.14-2.052 0-4.187-1.721-8.016-4.523-10.763-0.018-0.019-0.036-0.037-0.056-0.054-2.132-2.069-4.881-3.513-7.969-4.020-0.249-1.118-1.246-1.956-2.434-1.956-1.189 0-2.186 0.838-2.436 1.956-1.646 0.269-3.225 0.81-4.7 1.613-0.361 0.197-0.495 0.65-0.299 1.012 0.135 0.249 0.391 0.39 0.655 0.39 0.12 0 0.242-0.029 0.355-0.091 1.293-0.704 2.673-1.185 4.113-1.433 0.373 0.914 1.268 1.559 2.311 1.559 1.042 0 1.936-0.645 2.309-1.559 2.059 0.356 3.947 1.176 5.563 2.344h-2.844c-1.532 0-2.779 1.251-2.779 2.788 0 1.536 1.247 2.786 2.779 2.786 0.711 0 1.288 0.581 1.288 1.296s-0.578 1.296-1.288 1.296h-0.431c-1.531 0-2.777 1.25-2.777 2.787s1.246 2.788 2.777 2.788h8.618c-1.265 6.159-6.71 10.804-13.215 10.804-2.963 0-5.707-0.964-7.935-2.596h2.852c1.533 0 2.779-1.251 2.779-2.788 0-1.536-1.247-2.786-2.779-2.786-0.711 0-1.288-0.581-1.288-1.296 0-0.713 0.578-1.294 1.288-1.294h0.429c1.533 0 2.779-1.251 2.779-2.788s-1.247-2.789-2.779-2.789h-8.556c0.417-2.012 1.289-3.896 2.58-5.552 0.253-0.325 0.196-0.794-0.128-1.048s-0.792-0.196-1.045 0.128c-2.081 2.668-3.181 5.871-3.181 9.263 0 4.16 1.692 7.931 4.422 10.656 0.043 0.056 0.094 0.106 0.151 0.148 2.698 2.619 6.37 4.233 10.411 4.233 7.534 0 13.786-5.611 14.828-12.888 0.007-0.032 0.011-0.064 0.014-0.097v0zM2.877 15.664h8.78c0.711 0 1.29 0.581 1.29 1.296s-0.579 1.296-1.29 1.296h-0.429c-1.531 0-2.777 1.25-2.777 2.786s1.246 2.788 2.777 2.788c0.711 0 1.29 0.58 1.29 1.294s-0.579 1.296-1.29 1.296h-4.569c-2.376-2.443-3.843-5.78-3.843-9.456 0-0.437 0.021-0.871 0.061-1.3v0zM16.312 3.685c-0.556 0-1.008-0.454-1.008-1.012s0.452-1.010 1.008-1.010c0.554 0 1.005 0.453 1.005 1.010s-0.451 1.012-1.005 1.012zM20.909 18.21c-0.71 0-1.288-0.581-1.288-1.296 0-0.713 0.578-1.294 1.288-1.294h0.431c1.531 0 2.777-1.251 2.777-2.788s-1.246-2.788-2.777-2.788c-0.711 0-1.29-0.58-1.29-1.294 0-0.715 0.579-1.296 1.29-1.296h4.578c2.413 2.459 3.887 5.831 3.887 9.509 0 0.42-0.020 0.836-0.058 1.247h-8.838z"></path>
</symbol>
<symbol id="image-black" viewBox="0 0 32 32">
<path fill="#03053d" style="fill: var(--color8, #03053d)" d="M28.8 4.8h-25.6v22.4l14.867-14.87c0.3-0.3 0.707-0.468 1.131-0.468s0.831 0.168 1.131 0.468l8.47 8.486v-16.016zM0 3.189c0.003-0.42 0.171-0.822 0.468-1.12s0.699-0.466 1.119-0.469h28.826c0.877 0 1.587 0.712 1.587 1.589v25.622c-0.003 0.42-0.171 0.822-0.468 1.12s-0.699 0.466-1.119 0.469h-28.826c-0.421-0-0.825-0.168-1.122-0.466s-0.465-0.702-0.465-1.123v-25.622zM9.6 14.4c-0.849 0-1.663-0.337-2.263-0.937s-0.937-1.414-0.937-2.263c0-0.849 0.337-1.663 0.937-2.263s1.414-0.937 2.263-0.937c0.849 0 1.663 0.337 2.263 0.937s0.937 1.414 0.937 2.263c0 0.849-0.337 1.663-0.937 2.263s-1.414 0.937-2.263 0.937z"></path>
</symbol>
<symbol id="image-white" viewBox="0 0 32 32">
<path fill="#fff" style="fill: var(--color7, #fff)" d="M30.107 19.114c-1.038-0.977-2.351-1.618-3.786-1.802v-11.176c0-1.191-0.488-2.26-1.252-3.053-0.794-0.794-1.863-1.252-3.053-1.252h-17.71c-1.191 0-2.26 0.489-3.053 1.252-0.794 0.794-1.252 1.863-1.252 3.053v18.229c0 1.191 0.489 2.259 1.252 3.053 0.794 0.794 1.863 1.252 3.053 1.252h17.13c1.13 0.916 2.534 1.496 4.092 1.496 1.802 0 3.42-0.733 4.58-1.893s1.893-2.779 1.893-4.58-0.733-3.42-1.893-4.58zM1.618 6.137c0-0.733 0.305-1.405 0.794-1.863 0.489-0.489 1.16-0.794 1.893-0.794h17.71c0.733 0 1.405 0.305 1.893 0.794s0.794 1.16 0.794 1.893v9.527l-4.519-4.519c-0.305-0.305-0.824-0.336-1.16 0l-6.809 6.84-4.611-4.641c-0.305-0.305-0.824-0.336-1.16 0l-4.824 4.885v-12.122zM4.275 27.114v-0.061c-0.733 0-1.405-0.305-1.893-0.794-0.458-0.488-0.763-1.16-0.763-1.893v-3.786l5.405-5.435 4.611 4.611c0.305 0.305 0.824 0.305 1.16 0l6.809-6.84 4.458 4.489c-0.092 0.030-0.183 0.061-0.275 0.092-0.122 0.031-0.244 0.061-0.397 0.122-0.122 0.030-0.244 0.092-0.366 0.122-0.092 0.031-0.153 0.061-0.244 0.122-0.122 0.061-0.214 0.092-0.305 0.153-0.153 0.092-0.305 0.183-0.458 0.275-0.092 0.061-0.153 0.092-0.244 0.153-0.061 0.031-0.092 0.061-0.153 0.092-0.275 0.183-0.519 0.397-0.733 0.641-1.16 1.16-1.893 2.779-1.893 4.58 0 0.458 0.061 0.885 0.153 1.343 0.031 0.122 0.061 0.214 0.092 0.336 0.092 0.305 0.183 0.611 0.305 0.916v0.031c0.122 0.244 0.244 0.519 0.397 0.733h-15.664zM28.916 27.114c-0.885 0.886-2.076 1.405-3.42 1.405-1.282 0-2.473-0.519-3.328-1.343-0.122-0.122-0.244-0.275-0.366-0.397-0.092-0.092-0.183-0.214-0.275-0.305-0.122-0.153-0.214-0.336-0.305-0.519-0.061-0.122-0.122-0.214-0.183-0.336-0.061-0.153-0.122-0.336-0.153-0.519-0.031-0.122-0.092-0.275-0.122-0.397-0.061-0.305-0.092-0.641-0.092-0.977 0-1.343 0.55-2.534 1.405-3.42s2.076-1.405 3.42-1.405c1.343 0 2.534 0.55 3.42 1.405 0.886 0.886 1.405 2.076 1.405 3.42 0 1.313-0.55 2.504-1.405 3.389z"></path>
</symbol>
<symbol id="lock-white" viewBox="0 0 32 32">
<path fill="#fff" style="fill: var(--color7, #fff)" d="M24.234 4.54c0.345 0 0.625-0.28 0.625-0.625s-0.28-0.625-0.625-0.625h-0.004c-0.345 0-0.623 0.28-0.623 0.625s0.282 0.625 0.627 0.625z"></path>
<path fill="#fff" style="fill: var(--color7, #fff)" d="M27.607 4.54c0.345 0 0.625-0.28 0.625-0.625s-0.28-0.625-0.625-0.625h-0.004c-0.345 0-0.623 0.28-0.623 0.625s0.282 0.625 0.627 0.625z"></path>
<path fill="#fff" style="fill: var(--color7, #fff)" d="M20.86 4.54c0.345 0 0.625-0.28 0.625-0.625s-0.28-0.625-0.625-0.625h-0.003c-0.345 0-0.623 0.28-0.623 0.625s0.282 0.625 0.627 0.625z"></path>
<path fill="#fff" style="fill: var(--color7, #fff)" d="M4.391 4.54h9.391c0.345 0 0.625-0.28 0.625-0.625s-0.28-0.625-0.625-0.625h-9.391c-0.345 0-0.625 0.28-0.625 0.625s0.28 0.625 0.625 0.625z"></path>
<path fill="#fff" style="fill: var(--color7, #fff)" d="M29.995 0.001h-27.99c-1.106 0-2.005 0.899-2.005 2.005v23.143c0 1.106 0.899 2.005 2.005 2.005h5.002c0.399 0.604 0.862 1.171 1.385 1.695 2.032 2.032 4.734 3.151 7.607 3.151s5.575-1.119 7.607-3.151c0.527-0.527 0.988-1.095 1.382-1.695h5.006c1.106 0 2.005-0.899 2.005-2.005v-23.143c0-1.106-0.899-2.005-2.005-2.005v0zM2.005 1.251h27.99c0.416 0 0.755 0.339 0.755 0.755v4.577h-29.5v-4.577c0-0.416 0.339-0.755 0.755-0.755v0zM29.995 25.904h-4.3c1.92-4.002 1.224-8.955-2.088-12.268-1.684-1.684-3.819-2.741-6.174-3.056-2.279-0.305-4.637 0.137-6.639 1.245-0.302 0.167-0.412 0.547-0.245 0.849s0.547 0.411 0.849 0.244c3.686-2.039 8.342-1.38 11.324 1.601 3.707 3.707 3.707 9.738 0 13.445-1.796 1.796-4.184 2.785-6.723 2.785s-4.927-0.989-6.723-2.785c-2.981-2.981-3.639-7.637-1.601-11.322 0.167-0.302 0.058-0.682-0.244-0.849s-0.682-0.058-0.849 0.244c-1.107 2.002-1.549 4.359-1.244 6.638 0.152 1.136 0.477 2.221 0.961 3.228h-4.293c-0.416 0-0.755-0.339-0.755-0.755v-17.316h29.5v17.316c0 0.416-0.339 0.755-0.755 0.755z"></path>
<path fill="#fff" style="fill: var(--color7, #fff)" d="M15.999 24.843c0.345 0 0.625-0.28 0.625-0.625v-1.492c0-0.345-0.28-0.625-0.625-0.625s-0.625 0.28-0.625 0.625v1.492c0 0.345 0.28 0.625 0.625 0.625z"></path>
<path fill="#fff" style="fill: var(--color7, #fff)" d="M15.999 28.406c2.953 0 5.355-2.402 5.355-5.355v-2.39c0-0.809-0.581-1.484-1.348-1.63v-1.639c0-1.845-1.501-3.346-3.346-3.346h-1.322c-1.845 0-3.346 1.501-3.346 3.346v1.639c-0.767 0.147-1.348 0.822-1.348 1.63v2.39c-0 2.953 2.402 5.355 5.355 5.355v0zM13.242 17.392c0-1.156 0.94-2.096 2.096-2.096h1.322c1.156 0 2.096 0.94 2.096 2.096v1.609h-5.514v-1.609zM11.894 20.661c0-0.222 0.188-0.41 0.411-0.41h7.389c0.222 0 0.41 0.188 0.41 0.41v2.39c0 2.264-1.842 4.105-4.105 4.105s-4.105-1.842-4.105-4.105v-2.39z"></path>
<path fill="#fff" style="fill: var(--color7, #fff)" d="M8.393 13.635c-0.244 0.244-0.244 0.64 0 0.884 0.122 0.122 0.282 0.183 0.442 0.183s0.32-0.061 0.442-0.183l0.002-0.002c0.244-0.244 0.243-0.639-0.001-0.883s-0.641-0.243-0.885 0.001v0z"></path>
</symbol>
<symbol id="on" viewBox="0 0 32 32">
<path fill="#7a00f4" style="fill: var(--color4, #7a00f4)" d="M16 0c8.837 0 16 7.163 16 16s-7.163 16-16 16c-8.837 0-16-7.163-16-16s7.163-16 16-16z"></path>
</symbol>
<symbol id="speedometer-white" viewBox="0 0 32 32">
<path fill="#fff" style="fill: var(--color7, #fff)" d="M15.062 3.75c-3.61 0.207-6.994 1.609-9.694 4.015l4.003 4.003c0.881-0.313 1.829-0.484 2.815-0.484 1.009 0 1.977 0.178 2.875 0.505v-8.039z"></path>
<path fill="#fff" style="fill: var(--color7, #fff)" d="M18.702 14.366l7.573-6.909c-2.638-2.218-5.884-3.508-9.337-3.707v9.002c0.662 0.452 1.256 0.996 1.764 1.613v0z"></path>
<path fill="#fff" style="fill: var(--color7, #fff)" d="M0 19.722v0.937h3.75v-0.937c0-2.961 1.533-5.571 3.848-7.077l-3.554-3.554c-2.614 2.932-4.043 6.671-4.043 10.631z"></path>
<path fill="#fff" style="fill: var(--color7, #fff)" d="M27.028 20.66h4.972v-0.938c0-1.363-0.17-2.7-0.499-3.987l-4.473 4.925z"></path>
<path fill="#fff" style="fill: var(--color7, #fff)" d="M16 20.691c-1.002 0-1.944 0.39-2.652 1.098-1.462 1.462-1.462 3.841 0 5.303 0.708 0.708 1.65 1.098 2.652 1.098s1.943-0.39 2.652-1.098c1.462-1.462 1.462-3.841 0-5.303-0.708-0.708-1.65-1.098-2.652-1.098z"></path>
<path fill="#fff" style="fill: var(--color7, #fff)" d="M28.012 8.41l-11.438 10.436c1.285 0.129 2.478 0.693 3.403 1.618 0.948 0.948 1.486 2.154 1.614 3.394l10.409-11.461v-3.987h-3.988z"></path>
</symbol>
<symbol id="storage" viewBox="0 0 32 32">
<path fill="#b370f5" style="fill: var(--color2, #b370f5)" d="M32 10.313c0-0.374-0.073-0.738-0.216-1.081-0-0-0-0.001-0-0.001l-3.125-7.5c-0.438-1.051-1.457-1.731-2.596-1.731h-20.125c-1.139 0-2.158 0.679-2.596 1.731l-3.126 7.5c-0.143 0.343-0.216 0.707-0.216 1.081v3.875c0 0.72 0.272 1.377 0.718 1.875-0.446 0.498-0.718 1.155-0.718 1.875v3.75c0 0.72 0.272 1.377 0.718 1.875-0.446 0.498-0.718 1.155-0.718 1.875v3.75c0 1.551 1.262 2.813 2.813 2.813h26.375c1.551 0 2.813-1.262 2.813-2.813v-3.75c0-0.72-0.272-1.377-0.718-1.875 0.446-0.498 0.718-1.155 0.718-1.875v-3.75c0-0.72-0.272-1.377-0.718-1.875 0.446-0.498 0.718-1.155 0.718-1.875v-3.875zM5.072 2.452c0.146-0.35 0.486-0.577 0.865-0.577h20.125c0.38 0 0.719 0.226 0.865 0.577l2.104 5.048h-26.063l2.104-5.048zM30.125 29.188c0 0.517-0.421 0.938-0.938 0.938h-26.375c-0.517 0-0.938-0.421-0.938-0.938v-3.75c0-0.517 0.421-0.938 0.938-0.938h26.375c0.517 0 0.938 0.421 0.938 0.938v3.75zM30.125 21.688c0 0.517-0.421 0.938-0.938 0.938h-26.375c-0.517 0-0.938-0.421-0.938-0.938v-3.75c0-0.517 0.421-0.938 0.938-0.938h26.375c0.517 0 0.938 0.421 0.938 0.938v3.75zM30.125 14.188c0 0.517-0.421 0.938-0.938 0.938h-26.375c-0.517 0-0.938-0.421-0.938-0.938v-3.875c0-0.521 0.421-0.938 0.938-0.938h26.375c0.518 0 0.938 0.418 0.938 0.938v3.875z"></path>
<path fill="#b370f5" style="fill: var(--color2, #b370f5)" d="M27.313 26.375h-17c-0.518 0-0.938 0.42-0.938 0.938s0.42 0.938 0.938 0.938h17c0.518 0 0.938-0.42 0.938-0.938s-0.42-0.938-0.938-0.938z"></path>
<path fill="#b370f5" style="fill: var(--color2, #b370f5)" d="M27.313 11.25h-17c-0.518 0-0.938 0.42-0.938 0.937s0.42 0.938 0.938 0.938h17c0.518 0 0.938-0.42 0.938-0.938s-0.42-0.937-0.938-0.937z"></path>
<path fill="#b370f5" style="fill: var(--color2, #b370f5)" d="M4.688 11.25c-0.518 0-0.938 0.42-0.938 0.937s0.42 1.063 0.938 1.063c0.518 0 0.938-0.545 0.938-1.063s-0.42-0.937-0.938-0.937z"></path>
<path fill="#b370f5" style="fill: var(--color2, #b370f5)" d="M27.313 18.875h-17c-0.518 0-0.938 0.42-0.938 0.938s0.42 0.937 0.938 0.937h17c0.518 0 0.938-0.42 0.938-0.937s-0.42-0.938-0.938-0.938z"></path>
<path fill="#b370f5" style="fill: var(--color2, #b370f5)" d="M4.688 20.75c0.518 0 0.938-0.42 0.938-0.937s-0.42-0.938-0.938-0.938c-0.518 0-0.938 0.42-0.938 0.938s0.42 0.937 0.938 0.937z"></path>
<path fill="#b370f5" style="fill: var(--color2, #b370f5)" d="M4.688 28.25c0.518 0 0.938-0.42 0.938-0.938s-0.42-0.938-0.938-0.938c-0.518 0-0.938 0.42-0.938 0.938s0.42 0.938 0.938 0.938z"></path>
</symbol>
<symbol id="update" viewBox="0 0 32 32">
<path fill="#adadad" style="fill: var(--color9, #adadad)" d="M31.125 14.104c-0.104-0.65-0.715-1.093-1.365-0.989s-1.093 0.715-0.989 1.365c0.001 0.007 0.002 0.014 0.004 0.021 1.214 7.146-3.595 13.922-10.74 15.136s-13.922-3.595-15.136-10.74 3.595-13.922 10.74-15.136c4.394-0.746 8.867 0.788 11.877 4.076l-5.28 1.759c-0.625 0.208-0.962 0.883-0.755 1.507 0 0 0 0 0 0 0.208 0.625 0.883 0.963 1.507 0.755 0-0 0-0 0-0l7.152-2.384c0.487-0.162 0.815-0.618 0.815-1.131v-7.152c0-0.658-0.534-1.192-1.192-1.192s-1.192 0.534-1.192 1.192v4.354c-6.138-5.838-15.848-5.595-21.686 0.543s-5.595 15.848 0.543 21.686c6.138 5.838 15.848 5.595 21.686-0.543 3.329-3.5 4.815-8.365 4.010-13.128z"></path>
</symbol>
<symbol id="user" viewBox="0 0 32 32">
<path fill="#82b1fc" style="fill: var(--color6, #82b1fc)" d="M32 25.75c0 0.69-0.56 1.25-1.25 1.25h-3.75v3.75c0 0.69-0.56 1.25-1.25 1.25s-1.25-0.56-1.25-1.25v-3.75h-3.75c-0.69 0-1.25-0.56-1.25-1.25s0.56-1.25 1.25-1.25h3.75v-3.75c0-0.69 0.56-1.25 1.25-1.25s1.25 0.56 1.25 1.25v3.75h3.75c0.69 0 1.25 0.56 1.25 1.25zM22 30.75c0 0.69-0.56 1.25-1.25 1.25h-17c-2.068 0-3.75-1.682-3.75-3.75v-2.312c0-2.157 0.925-4.207 2.538-5.624 1.306-1.148 3.807-2.849 7.827-3.733-2.197-1.693-3.616-4.349-3.616-7.331 0-5.1 4.15-9.25 9.25-9.25s9.25 4.15 9.25 9.25c0 5.1-4.15 9.25-9.25 9.25-6.869 0-10.549 2.581-11.812 3.691-1.073 0.943-1.688 2.308-1.688 3.746v2.312c0 0.689 0.561 1.25 1.25 1.25h17c0.69 0 1.25 0.56 1.25 1.25zM16 16c3.722 0 6.75-3.028 6.75-6.75s-3.028-6.75-6.75-6.75-6.75 3.028-6.75 6.75c0 3.722 3.028 6.75 6.75 6.75z"></path>
</symbol>
<symbol id="vector-2" viewBox="0 0 32 32">
<path fill="#836df3" style="fill: var(--color10, #836df3)" d="M12.094 11.953v14.89l7.852 4.535v-14.89l5.586 3.226-9.512-19.681-9.512 8.695 5.586 3.226z"></path>
</symbol>
<symbol id="vector-3" viewBox="0 0 32 32">
<path fill="#836df3" style="fill: var(--color10, #836df3)" d="M25.779 28.29l-2.719-4.761c-0.553-0.953-1.39-1.532-2.036-1.477l-1.543-2.662c2.313-2.17 2.085-7.313-0.701-12.119-3.044-5.252-7.98-8.102-11.024-6.366s-3.044 7.401 0 12.653c2.786 4.806 7.152 7.589 10.207 6.698l1.543 2.662c-0.373 0.526-0.29 1.535 0.263 2.488l2.719 4.761c0.659 1.138 1.729 1.755 2.388 1.379l0.903-0.515c0.659-0.376 0.659-1.604 0-2.741zM16.9 16.679c-2.005 1.144-5.257-0.734-7.262-4.194s-2.005-7.191 0-8.335c2.005-1.144 5.257 0.734 7.262 4.194s2.005 7.191 0 8.335z"></path>
</symbol>
<symbol id="vector-4" viewBox="0 0 32 32">
<path fill="#836df3" style="fill: var(--color10, #836df3)" d="M27.171 13.283c-3.979-2.258-7.869-5.889-11.129-10.388l-0.044-0.025c-3.26 0.733-7.15-0.128-11.129-2.465l-0.152-0.089 0.215 2.865c0.755 10.072 4.685 18.34 11.011 28.13l0.154 0.089c6.326-2.484 10.256-6.213 11.011-15.413l0.215-2.617-0.152-0.086zM21.699 16.294c-0.387 4.712-2.4 6.622-5.64 7.894l-0.079-0.046c-3.24-5.014-5.253-9.249-5.64-14.408l-0.11-1.467 0.078 0.046c2.038 1.197 4.030 1.638 5.7 1.263l0.023 0.013c1.67 2.304 3.662 4.164 5.7 5.32l0.078 0.044-0.11 1.34z"></path>
</symbol>
<symbol id="vector" viewBox="0 0 32 32">
<path fill="#836df3" style="fill: var(--color10, #836df3)" d="M16.742 8.218v-0.759c0-0.953-0.673-2.115-1.504-2.594l-7.098-4.098c-0.83-0.48-1.504-0.096-1.504 0.858v1.588l-0.662-0.382c-0.83-0.48-1.504-0.096-1.504 0.857v13.91c0 0.972 0.687 2.157 1.534 2.646 0 0 19.144 11.055 19.398 11.202 1.196 0.691 2.165 0.138 2.165-1.235v-15.74l-10.827-6.252zM26.125 29.376c0 0.457-0.324 0.641-0.722 0.412s-0.722-0.788-0.722-1.245v-12.426l-10.827-6.252v-0.759c0-0.953-0.673-2.115-1.504-2.594l-4.271-2.466v-1.588c0-0.038 0.027-0.053 0.060-0.034l7.098 4.098c0.033 0.019 0.060 0.066 0.060 0.104v2.416l10.827 6.252v14.083z"></path>
</symbol>
</defs>
</svg>
