<!-- Generated by IcoMoon.io -->
<svg version="1.1" xmlns="http://www.w3.org/2000/svg" width="32" height="32" viewBox="0 0 32 32">
<title>storage</title>
<path fill="#b370f5" d="M32 10.313c0-0.374-0.073-0.738-0.216-1.081-0-0-0-0.001-0-0.001l-3.125-7.5c-0.438-1.051-1.457-1.731-2.596-1.731h-20.125c-1.139 0-2.158 0.679-2.596 1.731l-3.126 7.5c-0.143 0.343-0.216 0.707-0.216 1.081v3.875c0 0.72 0.272 1.377 0.718 1.875-0.446 0.498-0.718 1.155-0.718 1.875v3.75c0 0.72 0.272 1.377 0.718 1.875-0.446 0.498-0.718 1.155-0.718 1.875v3.75c0 1.551 1.262 2.813 2.813 2.813h26.375c1.551 0 2.813-1.262 2.813-2.813v-3.75c0-0.72-0.272-1.377-0.718-1.875 0.446-0.498 0.718-1.155 0.718-1.875v-3.75c0-0.72-0.272-1.377-0.718-1.875 0.446-0.498 0.718-1.155 0.718-1.875v-3.875zM5.072 2.452c0.146-0.35 0.486-0.577 0.865-0.577h20.125c0.38 0 0.719 0.226 0.865 0.577l2.104 5.048h-26.063l2.104-5.048zM30.125 29.188c0 0.517-0.421 0.938-0.938 0.938h-26.375c-0.517 0-0.938-0.421-0.938-0.938v-3.75c0-0.517 0.421-0.938 0.938-0.938h26.375c0.517 0 0.938 0.421 0.938 0.938v3.75zM30.125 21.688c0 0.517-0.421 0.938-0.938 0.938h-26.375c-0.517 0-0.938-0.421-0.938-0.938v-3.75c0-0.517 0.421-0.938 0.938-0.938h26.375c0.517 0 0.938 0.421 0.938 0.938v3.75zM30.125 14.188c0 0.517-0.421 0.938-0.938 0.938h-26.375c-0.517 0-0.938-0.421-0.938-0.938v-3.875c0-0.521 0.421-0.938 0.938-0.938h26.375c0.518 0 0.938 0.418 0.938 0.938v3.875z"></path>
<path fill="#b370f5" d="M27.313 26.375h-17c-0.518 0-0.938 0.42-0.938 0.938s0.42 0.938 0.938 0.938h17c0.518 0 0.938-0.42 0.938-0.938s-0.42-0.938-0.938-0.938z"></path>
<path fill="#b370f5" d="M27.313 11.25h-17c-0.518 0-0.938 0.42-0.938 0.937s0.42 0.938 0.938 0.938h17c0.518 0 0.938-0.42 0.938-0.938s-0.42-0.937-0.938-0.937z"></path>
<path fill="#b370f5" d="M4.688 11.25c-0.518 0-0.938 0.42-0.938 0.937s0.42 1.063 0.938 1.063c0.518 0 0.938-0.545 0.938-1.063s-0.42-0.937-0.938-0.937z"></path>
<path fill="#b370f5" d="M27.313 18.875h-17c-0.518 0-0.938 0.42-0.938 0.938s0.42 0.937 0.938 0.937h17c0.518 0 0.938-0.42 0.938-0.937s-0.42-0.938-0.938-0.938z"></path>
<path fill="#b370f5" d="M4.688 20.75c0.518 0 0.938-0.42 0.938-0.937s-0.42-0.938-0.938-0.938c-0.518 0-0.938 0.42-0.938 0.938s0.42 0.937 0.938 0.937z"></path>
<path fill="#b370f5" d="M4.688 28.25c0.518 0 0.938-0.42 0.938-0.938s-0.42-0.938-0.938-0.938c-0.518 0-0.938 0.42-0.938 0.938s0.42 0.938 0.938 0.938z"></path>
</svg>
