<!-- Generated by IcoMoon.io -->
<svg version="1.1" xmlns="http://www.w3.org/2000/svg" width="32" height="32" viewBox="0 0 32 32">
<title>update</title>
<path fill="#adadad" d="M31.125 14.104c-0.104-0.65-0.715-1.093-1.365-0.989s-1.093 0.715-0.989 1.365c0.001 0.007 0.002 0.014 0.004 0.021 1.214 7.146-3.595 13.922-10.74 15.136s-13.922-3.595-15.136-10.74 3.595-13.922 10.74-15.136c4.394-0.746 8.867 0.788 11.877 4.076l-5.28 1.759c-0.625 0.208-0.962 0.883-0.755 1.507 0 0 0 0 0 0 0.208 0.625 0.883 0.963 1.507 0.755 0-0 0-0 0-0l7.152-2.384c0.487-0.162 0.815-0.618 0.815-1.131v-7.152c0-0.658-0.534-1.192-1.192-1.192s-1.192 0.534-1.192 1.192v4.354c-6.138-5.838-15.848-5.595-21.686 0.543s-5.595 15.848 0.543 21.686c6.138 5.838 15.848 5.595 21.686-0.543 3.329-3.5 4.815-8.365 4.010-13.128z"></path>
</svg>
