<!-- Generated by IcoMoon.io -->
<svg version="1.1" xmlns="http://www.w3.org/2000/svg" width="32" height="32" viewBox="0 0 32 32">
<title>user</title>
<path fill="#82b1fc" d="M32 25.75c0 0.69-0.56 1.25-1.25 1.25h-3.75v3.75c0 0.69-0.56 1.25-1.25 1.25s-1.25-0.56-1.25-1.25v-3.75h-3.75c-0.69 0-1.25-0.56-1.25-1.25s0.56-1.25 1.25-1.25h3.75v-3.75c0-0.69 0.56-1.25 1.25-1.25s1.25 0.56 1.25 1.25v3.75h3.75c0.69 0 1.25 0.56 1.25 1.25zM22 30.75c0 0.69-0.56 1.25-1.25 1.25h-17c-2.068 0-3.75-1.682-3.75-3.75v-2.312c0-2.157 0.925-4.207 2.538-5.624 1.306-1.148 3.807-2.849 7.827-3.733-2.197-1.693-3.616-4.349-3.616-7.331 0-5.1 4.15-9.25 9.25-9.25s9.25 4.15 9.25 9.25c0 5.1-4.15 9.25-9.25 9.25-6.869 0-10.549 2.581-11.812 3.691-1.073 0.943-1.688 2.308-1.688 3.746v2.312c0 0.689 0.561 1.25 1.25 1.25h17c0.69 0 1.25 0.56 1.25 1.25zM16 16c3.722 0 6.75-3.028 6.75-6.75s-3.028-6.75-6.75-6.75-6.75 3.028-6.75 6.75c0 3.722 3.028 6.75 6.75 6.75z"></path>
</svg>
