<!-- Generated by IcoMoon.io -->
<svg version="1.1" xmlns="http://www.w3.org/2000/svg" width="32" height="32" viewBox="0 0 32 32">
<title>vector-4</title>
<path fill="#836df3" d="M27.171 13.283c-3.979-2.258-7.869-5.889-11.129-10.388l-0.044-0.025c-3.26 0.733-7.15-0.128-11.129-2.465l-0.152-0.089 0.215 2.865c0.755 10.072 4.685 18.34 11.011 28.13l0.154 0.089c6.326-2.484 10.256-6.213 11.011-15.413l0.215-2.617-0.152-0.086zM21.699 16.294c-0.387 4.712-2.4 6.622-5.64 7.894l-0.079-0.046c-3.24-5.014-5.253-9.249-5.64-14.408l-0.11-1.467 0.078 0.046c2.038 1.197 4.030 1.638 5.7 1.263l0.023 0.013c1.67 2.304 3.662 4.164 5.7 5.32l0.078 0.044-0.11 1.34z"></path>
</svg>
