<!-- Generated by IcoMoon.io -->
<svg version="1.1" xmlns="http://www.w3.org/2000/svg" width="32" height="32" viewBox="0 0 32 32">
<title>vector-3</title>
<path fill="#836df3" d="M25.779 28.29l-2.719-4.761c-0.553-0.953-1.39-1.532-2.036-1.477l-1.543-2.662c2.313-2.17 2.085-7.313-0.701-12.119-3.044-5.252-7.98-8.102-11.024-6.366s-3.044 7.401 0 12.653c2.786 4.806 7.152 7.589 10.207 6.698l1.543 2.662c-0.373 0.526-0.29 1.535 0.263 2.488l2.719 4.761c0.659 1.138 1.729 1.755 2.388 1.379l0.903-0.515c0.659-0.376 0.659-1.604 0-2.741zM16.9 16.679c-2.005 1.144-5.257-0.734-7.262-4.194s-2.005-7.191 0-8.335c2.005-1.144 5.257 0.734 7.262 4.194s2.005 7.191 0 8.335z"></path>
</svg>
