<svg xmlns="http://www.w3.org/2000/svg" width="1920" height="981" fill="none"><path fill="url(#a)" d="M77.977 222.74c-85.5 160.906-36.228 210.409 0 296 110.5 261.069-210.708 458.699-157 191.5 47.953-238.569-23.453-120.905-23.453-329.905 0-161.5 23.453-358.5 72.953-358.5s145.314 129.741 107.5 200.905Z" opacity=".4"/><path fill="url(#b)" d="M49.5 172c30.363 63.041-107.48 148.835 41.498 295.999 55.797 55.118-1.764 170.752-56 210.501-78 57.164-121 30.645-121-102.5 0-107.209-20.258-24.291 18.5-272.001C-44.36 156.114 3.5 76.5 49.5 172Z" opacity=".5" style="mix-blend-mode:multiply"/><path fill="url(#c)" d="M1864 469.999c56.6 132.179 35.8 259.982 12.5 314-57.36 133 54.49 292.571 66.6 111.748 11.62-173.387 108.82-142.784 106.06-279.037C2047.03 511.424 1990 86 1908 164.5l-1.55 1.48c-80.98 77.517-122.44 117.204-42.45 304.019Z" opacity=".4"/><path fill="url(#d)" d="M1868.87 391.5c0 43.816 61.11 149.222 0 270.441-33.73 66.912-74.29 140.954-33.37 178.301 64.67 59.014 163.52 4.609 164.25-79.082.59-67.387 15.01-254.579-20.75-414.66-21.35-95.571-110.13-39.5-110.13 45Z" opacity=".5" style="mix-blend-mode:multiply"/><defs><linearGradient id="a" x1="23.524" x2="-28.772" y1="96.404" y2="736.511" gradientUnits="userSpaceOnUse"><stop stop-color="#6C38FF"/><stop offset="1" stop-color="#57EBFF"/></linearGradient><linearGradient id="b" x1="-439.566" x2="89.185" y1="336.269" y2="491.267" gradientUnits="userSpaceOnUse"><stop stop-color="#9800F4"/><stop offset="1" stop-color="#00C2FF"/></linearGradient><linearGradient id="c" x1="1885.5" x2="1926.68" y1="880.5" y2="263.585" gradientUnits="userSpaceOnUse"><stop stop-color="#9C38FF"/><stop offset="1" stop-color="#57EBFF"/></linearGradient><linearGradient id="d" x1="1840" x2="1985.96" y1="256" y2="723.631" gradientUnits="userSpaceOnUse"><stop stop-color="#9800F4"/><stop offset="1" stop-color="#00C2FF"/></linearGradient></defs></svg>