<svg width="390" height="1086" viewBox="0 0 390 1086" fill="none" xmlns="http://www.w3.org/2000/svg">
<path d="M-942 101.041C-1275.59 240.27 -1431 -73.2245 -1336 312.203L-1336 1085.9H642.629L750 161.211C504.5 21.5714 285.001 315.609 -60.9994 211.731C-385.641 114.265 -543.5 -65.2776 -942 101.041Z" fill="#E5E9FF"/>
<path d="M-924.5 192.998C-1227.98 310.939 -1438 -110.69 -1438 334.908L-1336 1081.86H642.629V0.00012207C485 27.2468 320.894 242.95 -37 242.95C-362.5 242.95 -553.5 48.8171 -924.5 192.998Z" fill="#3941FF" fill-opacity="0.4"/>
<path d="M-746 157.805C-939.5 223.084 -992.5 296.877 -1335.5 296.877V1085.9H643.129L678.5 157.805C495.5 284.956 260.5 310.068 38 257.142C-240.297 190.944 -403.632 42.3047 -746 157.805Z" fill="#8A2EFF" fill-opacity="0.5"/>
</svg>
