<svg width="271" height="300" viewBox="0 0 271 300" fill="none" xmlns="http://www.w3.org/2000/svg">
<path d="M268.464 90.8425V225.06L115.695 138.653V4.5188L268.464 90.8425Z" fill="url(#paint0_linear_27_1160)"/>
<path d="M270.543 228.623L113.616 139.866V0.953369L270.543 89.629V228.623ZM117.776 137.439L266.384 221.494V92.0557L117.776 8.0822V137.439Z" fill="url(#paint1_linear_27_1160)"/>
<path d="M53.5049 84.1801V166.217L224.109 69.2113L151.334 28.1589L53.5049 84.1801Z" fill="url(#paint2_linear_27_1160)"/>
<path d="M45.1807 79.3393L53.6226 84.1802L151.334 28.159L142.662 23.1858L45.1807 79.3393Z" fill="url(#paint3_linear_27_1160)"/>
<path d="M191.69 46.9576L177.68 55.3074L157.627 42.8076V156.304L241.429 222.443L262.007 209.788V87.5631L191.69 46.9576Z" fill="url(#paint4_linear_27_1160)"/>
<path d="M179.284 53.9229V63.6826L113.792 25.8652C111.479 24.5292 108.586 26.1994 108.586 28.8715V149.381L233.54 222.024C236.469 223.727 240.099 223.675 242.978 221.89L245.646 220.236C248.105 218.712 249.601 216.025 249.601 213.132V93.9722C249.601 90.5958 247.8 87.4758 244.876 85.7875L184.49 50.9166C182.176 49.5804 179.284 51.2506 179.284 53.9229Z" fill="#836DF3"/>
<path d="M112.36 27.0588L177.851 64.8762V62.8554L113.792 25.8649C112.123 24.9012 110.168 25.5151 109.2 26.9276C110.162 26.4887 111.315 26.455 112.36 27.0588Z" fill="url(#paint5_radial_27_1160)"/>
<path d="M244.876 85.7872L184.49 50.9163C182.821 49.9524 180.866 50.5663 179.897 51.9788C180.859 51.54 182.012 51.5064 183.058 52.11L243.444 86.9811C246.368 88.6692 248.168 91.7894 248.168 95.1658V214.325C248.168 216.488 247.332 218.535 245.882 220.068C248.195 218.52 249.601 215.927 249.601 213.131V93.9717C249.601 90.5953 247.8 87.4755 244.876 85.7872Z" fill="url(#paint6_radial_27_1160)"/>
<path d="M102.15 142.219L240.669 222.207V122.105L102.15 42.1167V142.219Z" fill="#CEE9F4"/>
<path d="M103.247 146.563L233.773 221.936C236.496 223.508 239.838 223.557 242.605 222.066L243.458 221.607L242.57 221.947C240.439 222.762 238.153 221.188 238.153 218.907V129.281C238.153 125.904 236.352 122.784 233.428 121.096L102.344 45.3999C100.03 44.0638 97.1377 45.734 97.1377 48.4063V135.98C97.1377 140.346 99.4664 144.38 103.247 146.563Z" fill="#836DF3"/>
<path d="M242.57 221.946C240.439 222.762 238.153 221.188 238.153 218.906V129.28C238.153 125.904 236.352 122.784 233.428 121.095L102.344 45.3997C100.815 44.5167 99.0498 44.9628 98.0171 46.1275C98.9616 45.7262 100.076 45.7092 101.091 46.2951L232.175 121.991C235.099 123.679 236.9 126.799 236.9 130.175V219.802C236.9 221.504 238.173 222.81 239.704 223.026C240.705 222.869 241.688 222.561 242.605 222.066L243.458 221.607L242.57 221.946Z" fill="url(#paint7_radial_27_1160)"/>
<g opacity="0.2">
<path d="M165.661 44.7813L151.651 53.1311L131.599 40.6313V154.127L215.4 220.266L235.978 207.612V85.3868L165.661 44.7813Z" fill="url(#paint8_linear_27_1160)"/>
<path d="M153.255 51.7467V61.5063L87.7637 23.6889C85.4498 22.3529 82.5576 24.0232 82.5576 26.6953V147.205L207.512 219.848C210.441 221.551 214.07 221.499 216.95 219.714L219.618 218.06C222.076 216.536 223.572 213.849 223.572 210.955V91.796C223.572 88.4195 221.771 85.2995 218.848 83.6112L158.461 48.7403C156.147 47.4042 153.255 49.0744 153.255 51.7467Z" fill="#836DF3"/>
<path d="M86.3315 24.883L151.823 62.7004V60.6796L87.7636 23.6891C86.0944 22.7254 84.1396 23.3393 83.1714 24.7518C84.133 24.3129 85.2859 24.2792 86.3315 24.883Z" fill="url(#paint9_radial_27_1160)"/>
<path d="M218.847 83.6112L158.461 48.7403C156.792 47.7764 154.837 48.3903 153.869 49.8028C154.83 49.3639 155.983 49.3304 157.029 49.934L217.415 84.805C220.339 86.4932 222.14 89.6134 222.14 92.9898V212.149C222.14 214.312 221.303 216.359 219.854 217.892C222.166 216.345 223.572 213.751 223.572 210.955V91.7957C223.572 88.4193 221.771 85.2995 218.847 83.6112Z" fill="url(#paint10_radial_27_1160)"/>
<path d="M76.1216 136.472L217.137 217.902V110.865L76.1216 29.4348V136.472Z" fill="white"/>
<path d="M76.1216 140.042L214.64 220.031V119.929L76.1216 39.9404V140.042Z" fill="#CEE9F4"/>
<path d="M77.2179 144.386L207.745 219.76C210.467 221.332 213.809 221.381 216.576 219.89L217.429 219.431L216.541 219.77C214.41 220.586 212.124 219.012 212.124 216.731V127.104C212.124 123.728 210.323 120.608 207.4 118.92L76.315 43.2237C74.0011 41.8875 71.1089 43.5577 71.1089 46.23V133.803C71.1089 138.169 73.4376 142.203 77.2179 144.386Z" fill="#836DF3"/>
<path d="M216.541 219.77C214.411 220.585 212.124 219.012 212.124 216.73V127.104C212.124 123.727 210.323 120.607 207.4 118.919L76.3154 43.2235C74.7858 42.3404 73.021 42.7865 71.9883 43.9512C72.9329 43.5499 74.0473 43.533 75.0621 44.1188L206.147 119.814C209.07 121.503 210.871 124.623 210.871 127.999V217.625C210.871 219.328 212.145 220.633 213.675 220.849C214.676 220.693 215.659 220.384 216.577 219.89L217.43 219.43L216.541 219.77Z" fill="url(#paint11_radial_27_1160)"/>
</g>
<path d="M139.97 76.0342L125.96 84.3842L105.908 71.8843V185.38L189.709 251.519L210.288 238.865V116.64L139.97 76.0342Z" fill="url(#paint12_linear_27_1160)"/>
<path d="M127.564 82.9995V92.7594L62.0728 54.9419C59.7589 53.6058 56.8667 55.276 56.8667 57.9483V178.458L181.821 251.1C184.75 252.803 188.379 252.752 191.259 250.967L193.927 249.313C196.385 247.789 197.881 245.101 197.881 242.208V123.049C197.881 119.672 196.08 116.552 193.157 114.864L132.77 79.9932C130.456 78.6572 127.564 80.3272 127.564 82.9995Z" fill="#836DF3"/>
<path d="M60.6406 56.1359L126.132 93.9533V91.9325L62.0728 54.942C60.4035 53.9783 58.4487 54.5922 57.4805 56.0048C58.4421 55.5659 59.595 55.5324 60.6406 56.1359Z" fill="url(#paint13_radial_27_1160)"/>
<path d="M193.157 114.864L132.77 79.9935C131.101 79.0296 129.146 79.6433 128.178 81.056C129.139 80.617 130.292 80.5834 131.338 81.1872L191.724 116.058C194.648 117.746 196.449 120.866 196.449 124.243V243.402C196.449 245.565 195.612 247.612 194.163 249.145C196.475 247.598 197.881 245.004 197.881 242.209V123.049C197.881 119.672 196.08 116.553 193.157 114.864Z" fill="url(#paint14_radial_27_1160)"/>
<path d="M50.4307 167.724L191.446 249.155V142.118L50.4307 60.6877V167.724Z" fill="white"/>
<path d="M50.4307 171.295L188.949 251.284V151.182L50.4307 71.1934V171.295Z" fill="#CEE9F4"/>
<path d="M51.527 175.639L182.054 251.013C184.776 252.585 188.118 252.634 190.885 251.143L191.738 250.683L190.85 251.023C188.72 251.838 186.433 250.265 186.433 247.983V158.357C186.433 154.981 184.632 151.861 181.709 150.172L50.624 74.4766C48.3101 73.1405 45.418 74.8105 45.418 77.4828V165.056C45.418 169.422 47.7467 173.456 51.527 175.639Z" fill="#836DF3"/>
<path d="M190.85 251.023C188.719 251.838 186.433 250.265 186.433 247.983V158.357C186.433 154.98 184.632 151.861 181.709 150.172L50.6243 74.4764C49.0947 73.5934 47.3299 74.0395 46.2974 75.2041C47.2418 74.803 48.3562 74.7861 49.371 75.3719L180.455 151.067C183.379 152.756 185.18 155.876 185.18 159.252V248.878C185.18 250.581 186.454 251.886 187.984 252.102C188.985 251.946 189.968 251.637 190.885 251.143L191.738 250.683L190.85 251.023Z" fill="url(#paint15_radial_27_1160)"/>
<path d="M168.326 191.555V273.592L266.155 217.571V135.534L168.326 191.555Z" fill="url(#paint16_linear_27_1160)"/>
<path d="M160.002 186.714L168.444 191.555L266.155 135.533L266.166 125.375L160.002 186.714Z" fill="url(#paint17_linear_27_1160)"/>
<path d="M172.15 160.271V299.077L181.576 293.695V154.889L172.15 160.271Z" fill="url(#paint18_linear_27_1160)"/>
<path d="M172.245 160.271V299.077L0.761719 199.09V60.3904L172.245 160.271Z" fill="url(#paint19_linear_27_1160)"/>
<path d="M42.6411 158.856V103.655L130.368 154.754V210.006L42.6411 158.856Z" fill="url(#paint20_linear_27_1160)"/>
<path d="M42.6411 103.655V105.508L128.582 155.567V208.964L130.368 210.006V154.754L42.6411 103.655Z" fill="url(#paint21_radial_27_1160)"/>
<path d="M50.4346 154.378V117.216L122.574 159.237V196.438L50.4346 154.378Z" fill="url(#paint22_linear_27_1160)"/>
<path d="M51.896 153.567V118.067L50.4346 117.216V154.378L122.574 196.438V194.773L51.896 153.567Z" fill="#AFB6E5"/>
<path opacity="0.8" d="M108.935 170.343L62.7427 143.475V147.544L108.935 174.412V170.343Z" fill="#836DF3"/>
<path opacity="0.8" d="M99.4646 172.508L72.2139 156.466V160.534L99.4646 176.576V172.508Z" fill="#836DF3"/>
<path d="M0.761719 60.3901L172.245 160.271L181.576 154.889L9.90829 54.9016L0.761719 60.3901Z" fill="url(#paint23_linear_27_1160)"/>
<path d="M2.14844 59.6968V62.3956L171.378 160.964V297.07L173.631 298.383V159.578L2.14844 59.6968Z" fill="url(#paint24_radial_27_1160)"/>
<defs>
<linearGradient id="paint0_linear_27_1160" x1="262.852" y1="71.3023" x2="56.7079" y2="197.924" gradientUnits="userSpaceOnUse">
<stop offset="0.0050505" stop-color="#273B98"/>
<stop offset="0.227356" stop-color="#2F2BA2"/>
<stop offset="0.39899" stop-color="#361CAC"/>
<stop offset="0.768022" stop-color="#440B89"/>
<stop offset="1" stop-color="#4E0070"/>
</linearGradient>
<linearGradient id="paint1_linear_27_1160" x1="113.616" y1="114.788" x2="270.543" y2="114.788" gradientUnits="userSpaceOnUse">
<stop offset="0.0606061" stop-color="#F36DD4"/>
<stop offset="0.19527" stop-color="#E96DDA"/>
<stop offset="0.427534" stop-color="#CD6DE9"/>
<stop offset="0.550505" stop-color="#BB6DF3"/>
<stop offset="1" stop-color="#836DF3"/>
</linearGradient>
<linearGradient id="paint2_linear_27_1160" x1="103.449" y1="96.8797" x2="455.073" y2="-8.38918" gradientUnits="userSpaceOnUse">
<stop stop-color="#AFB6E5"/>
<stop offset="0.208658" stop-color="#B6BCE8"/>
<stop offset="0.501301" stop-color="#C8CDF1"/>
<stop offset="0.580808" stop-color="#CED3F4"/>
<stop offset="0.884922" stop-color="#DEE2FC"/>
<stop offset="1" stop-color="#E5E9FF"/>
</linearGradient>
<linearGradient id="paint3_linear_27_1160" x1="194.604" y1="-129.903" x2="90.9322" y2="67.6388" gradientUnits="userSpaceOnUse">
<stop stop-color="#AFB6E5"/>
<stop offset="0.208658" stop-color="#B6BCE8"/>
<stop offset="0.501301" stop-color="#C8CDF1"/>
<stop offset="0.580808" stop-color="#CED3F4"/>
<stop offset="0.884922" stop-color="#DEE2FC"/>
<stop offset="1" stop-color="#E5E9FF"/>
</linearGradient>
<linearGradient id="paint4_linear_27_1160" x1="263.698" y1="49.3547" x2="170.978" y2="181.713" gradientUnits="userSpaceOnUse">
<stop stop-color="white"/>
<stop offset="0.262742" stop-color="#EEF0FA"/>
<stop offset="0.777896" stop-color="#C4C9EC"/>
<stop offset="1" stop-color="#AFB6E5"/>
</linearGradient>
<radialGradient id="paint5_radial_27_1160" cx="0" cy="0" r="1" gradientUnits="userSpaceOnUse" gradientTransform="translate(143.526 45.1372) scale(27.9976 28.0028)">
<stop stop-color="white"/>
<stop offset="1"/>
</radialGradient>
<radialGradient id="paint6_radial_27_1160" cx="0" cy="0" r="1" gradientUnits="userSpaceOnUse" gradientTransform="translate(200.426 106.13) scale(50.4705 50.4798)">
<stop stop-color="white"/>
<stop offset="1"/>
</radialGradient>
<radialGradient id="paint7_radial_27_1160" cx="0" cy="0" r="1" gradientUnits="userSpaceOnUse" gradientTransform="translate(150.924 134.457) scale(81.285 81.2999)">
<stop stop-color="white"/>
<stop offset="1"/>
</radialGradient>
<linearGradient id="paint8_linear_27_1160" x1="237.669" y1="47.1784" x2="144.95" y2="179.537" gradientUnits="userSpaceOnUse">
<stop stop-color="white"/>
<stop offset="0.262742" stop-color="#EEF0FA"/>
<stop offset="0.777896" stop-color="#C4C9EC"/>
<stop offset="1" stop-color="#AFB6E5"/>
</linearGradient>
<radialGradient id="paint9_radial_27_1160" cx="0" cy="0" r="1" gradientUnits="userSpaceOnUse" gradientTransform="translate(117.497 42.9614) scale(27.9977 28.0028)">
<stop stop-color="white"/>
<stop offset="1"/>
</radialGradient>
<radialGradient id="paint10_radial_27_1160" cx="0" cy="0" r="1" gradientUnits="userSpaceOnUse" gradientTransform="translate(174.397 103.954) scale(50.4705 50.4798)">
<stop stop-color="white"/>
<stop offset="1"/>
</radialGradient>
<radialGradient id="paint11_radial_27_1160" cx="0" cy="0" r="1" gradientUnits="userSpaceOnUse" gradientTransform="translate(124.895 132.281) scale(81.285 81.3)">
<stop stop-color="white"/>
<stop offset="1"/>
</radialGradient>
<linearGradient id="paint12_linear_27_1160" x1="211.978" y1="78.4314" x2="119.259" y2="210.79" gradientUnits="userSpaceOnUse">
<stop stop-color="white"/>
<stop offset="0.262742" stop-color="#EEF0FA"/>
<stop offset="0.777896" stop-color="#C4C9EC"/>
<stop offset="1" stop-color="#AFB6E5"/>
</linearGradient>
<radialGradient id="paint13_radial_27_1160" cx="0" cy="0" r="1" gradientUnits="userSpaceOnUse" gradientTransform="translate(91.8063 74.2144) scale(27.9976 28.0028)">
<stop stop-color="white"/>
<stop offset="1"/>
</radialGradient>
<radialGradient id="paint14_radial_27_1160" cx="0" cy="0" r="1" gradientUnits="userSpaceOnUse" gradientTransform="translate(148.706 135.207) scale(50.4705 50.4798)">
<stop stop-color="white"/>
<stop offset="1"/>
</radialGradient>
<radialGradient id="paint15_radial_27_1160" cx="0" cy="0" r="1" gradientUnits="userSpaceOnUse" gradientTransform="translate(99.2042 163.534) scale(81.2849 81.3)">
<stop stop-color="white"/>
<stop offset="1"/>
</radialGradient>
<linearGradient id="paint16_linear_27_1160" x1="159.13" y1="221.966" x2="423.063" y2="142.95" gradientUnits="userSpaceOnUse">
<stop stop-color="#AFB6E5"/>
<stop offset="0.208658" stop-color="#B6BCE8"/>
<stop offset="0.501301" stop-color="#C8CDF1"/>
<stop offset="0.580808" stop-color="#CED3F4"/>
<stop offset="0.884922" stop-color="#DEE2FC"/>
<stop offset="1" stop-color="#E5E9FF"/>
</linearGradient>
<linearGradient id="paint17_linear_27_1160" x1="320.143" y1="-42.9563" x2="207.094" y2="172.45" gradientUnits="userSpaceOnUse">
<stop stop-color="#AFB6E5"/>
<stop offset="0.208658" stop-color="#B6BCE8"/>
<stop offset="0.501301" stop-color="#C8CDF1"/>
<stop offset="0.580808" stop-color="#CED3F4"/>
<stop offset="0.884922" stop-color="#DEE2FC"/>
<stop offset="1" stop-color="#E5E9FF"/>
</linearGradient>
<linearGradient id="paint18_linear_27_1160" x1="169.823" y1="229.091" x2="262.452" y2="201.36" gradientUnits="userSpaceOnUse">
<stop stop-color="#AFB6E5"/>
<stop offset="0.208658" stop-color="#B6BCE8"/>
<stop offset="0.501301" stop-color="#C8CDF1"/>
<stop offset="0.580808" stop-color="#CED3F4"/>
<stop offset="0.884922" stop-color="#DEE2FC"/>
<stop offset="1" stop-color="#E5E9FF"/>
</linearGradient>
<linearGradient id="paint19_linear_27_1160" x1="255.784" y1="17.6405" x2="4.37942" y2="258.282" gradientUnits="userSpaceOnUse">
<stop stop-color="#AFB6E5"/>
<stop offset="0.144913" stop-color="#B6BCE8"/>
<stop offset="0.348524" stop-color="#C8CDF1"/>
<stop offset="0.580808" stop-color="#E5E9FF"/>
<stop offset="0.855112" stop-color="#F5F6FF"/>
<stop offset="1" stop-color="white"/>
</linearGradient>
<linearGradient id="paint20_linear_27_1160" x1="37.7569" y1="68.7202" x2="118.815" y2="215.135" gradientUnits="userSpaceOnUse">
<stop offset="0.0606061" stop-color="#B5AFFF"/>
<stop offset="0.19527" stop-color="#E96DDA"/>
<stop offset="0.427534" stop-color="#CD6DE9"/>
<stop offset="0.550505" stop-color="#BB6DF3"/>
<stop offset="1" stop-color="#B5AFFF"/>
</linearGradient>
<radialGradient id="paint21_radial_27_1160" cx="0" cy="0" r="1" gradientUnits="userSpaceOnUse" gradientTransform="translate(86.5045 156.831) scale(48.7371 48.7461)">
<stop stop-color="white"/>
<stop offset="1"/>
</radialGradient>
<linearGradient id="paint22_linear_27_1160" x1="151.743" y1="77.8942" x2="40.9777" y2="211.86" gradientUnits="userSpaceOnUse">
<stop stop-color="#AFB6E5"/>
<stop offset="0.144913" stop-color="#B6BCE8"/>
<stop offset="0.348524" stop-color="#C8CDF1"/>
<stop offset="0.580808" stop-color="#E5E9FF"/>
<stop offset="0.855112" stop-color="#F5F6FF"/>
<stop offset="1" stop-color="white"/>
</linearGradient>
<linearGradient id="paint23_linear_27_1160" x1="109.213" y1="73.2451" x2="89.7991" y2="110.238" gradientUnits="userSpaceOnUse">
<stop stop-color="#AFB6E5"/>
<stop offset="0.144913" stop-color="#B6BCE8"/>
<stop offset="0.348524" stop-color="#C8CDF1"/>
<stop offset="0.580808" stop-color="#E5E9FF"/>
<stop offset="0.855112" stop-color="#F5F6FF"/>
<stop offset="1" stop-color="white"/>
</linearGradient>
<radialGradient id="paint24_radial_27_1160" cx="0" cy="0" r="1" gradientUnits="userSpaceOnUse" gradientTransform="translate(114.926 156.852) scale(103.897 103.916)">
<stop stop-color="white"/>
<stop offset="1" stop-color="#E5E9FF"/>
</radialGradient>

</defs>
</svg>
