<svg width="93" height="91" viewBox="0 0 93 91" fill="none" xmlns="http://www.w3.org/2000/svg">
<path d="M18.4934 25.0876C6.49372 37.5791 -0.00623742 53.072 13.9933 66.0688C25.9938 77.2098 35.4937 84.5607 55.9936 79.563C76.4935 74.5653 84.349 64.2218 84.349 48.5594C84.3489 33.584 73.0913 30.1997 60.9934 17.5914C37.4938 -6.89968 28.2515 14.9295 18.4934 25.0876Z" fill="#92C4FF"/>
<path d="M78.0001 33.5001C78.0001 64.5001 67.0001 70 56.0001 75.5641C45.0002 81.1282 25.5001 88.4999 17.5001 75C9.72013 61.8713 18.475 57.5782 15.0001 46.0001C10.5001 31.0065 16.6704 12.2434 31.5001 14.5001C54.5001 18 78.0001 8.32138 78.0001 33.5001Z" fill="#907AFF"/>
</svg>