<svg width="1107" height="1167" viewBox="0 0 1107 1167" fill="none" xmlns="http://www.w3.org/2000/svg">
<path d="M891.376 368.241C1069.11 684.58 911.218 811.428 746.876 943.745C582.535 1076.06 427.02 1126.9 282.876 1014.25C204.551 953.034 166.78 812.66 103.246 688.667C20.9717 528.102 58.6373 260.81 282.876 215.747C511.248 169.854 727.876 77.2395 891.376 368.241Z" fill="url(#paint0_linear_27_813)"/>
<path d="M134.315 493.466C193.725 318.019 232.54 336.412 312.546 160.964C392.552 -14.4831 584.25 12.8732 744.658 203.883C905.066 394.893 963.286 563.226 816.743 675.044C682.093 777.788 597.32 641.087 470.578 767.484C343.836 893.882 88.4791 628.824 134.315 493.466Z" fill="url(#paint1_linear_27_813)"/>
<path d="M46.0549 524.436C101.055 383.492 176.527 454.771 333.248 327.096C489.97 199.42 777.376 150.242 827.796 383.492C857.465 520.742 825.876 531.545 905.876 694.241C985.876 856.937 857.652 1011.08 660.555 1002.94C484.118 995.645 451.055 915.936 267.055 864.936C83.0547 813.937 -13.0921 676.008 46.0549 524.436Z" fill="url(#paint2_linear_27_813)"/>
<defs>
<linearGradient id="paint0_linear_27_813" x1="352.127" y1="220.065" x2="692.552" y2="975.469" gradientUnits="userSpaceOnUse">
<stop stop-color="#97E6FF"/>
<stop offset="1" stop-color="#E8FFFE"/>
</linearGradient>
<linearGradient id="paint1_linear_27_813" x1="411.747" y1="43.7927" x2="533.19" y2="882.316" gradientUnits="userSpaceOnUse">
<stop stop-color="#42A4FF"/>
<stop offset="1" stop-color="#57E1FF"/>
</linearGradient>
<linearGradient id="paint2_linear_27_813" x1="733.556" y1="1021.44" x2="460.479" y2="229.465" gradientUnits="userSpaceOnUse">
<stop stop-color="#6788FF"/>
<stop offset="1" stop-color="#C293FF"/>
</linearGradient>
</defs>
</svg>